_Griffith_Gothic-Black_Italic_WebTT.ufo
<glyph name="ampersand" format="1">
  <advance width="1462.272"/>
  <unicode hex="0026"/>
  <outline>
    <contour>
      <point x="1249" y="870" type="qcurve"/>
      <point x="1454" y="770" type="line"/>
      <point x="1366.68656716" y="632.686567164"/>
      <point x="1171.7761194" y="390.28358209"/>
      <point x="1077" y="297" type="qcurve"/>
      <point x="1120.28358209" y="238.791044776"/>
      <point x="1195.50746269" y="207.0"/>
      <point x="1247" y="207" type="qcurve" smooth="yes"/>
      <point x="1279.08955224" y="207.0"/>
      <point x="1329.40298507" y="213.537313433"/>
      <point x="1360" y="221" type="qcurve"/>
      <point x="1305" y="0" type="line"/>
      <point x="1266.19402985" y="-7.46268656716"/>
      <point x="1204.31343284" y="-14.0"/>
      <point x="1167" y="-14" type="qcurve" smooth="yes"/>
      <point x="1063.26865672" y="-14.0"/>
      <point x="927.194029851" y="47.6567164179"/>
      <point x="866" y="129" type="qcurve"/>
      <point x="751.820895522" y="55.8656716418"/>
      <point x="549.343283582" y="-20.0"/>
      <point x="418" y="-20" type="qcurve" smooth="yes"/>
      <point x="234.417910448" y="-20.0"/>
      <point x="12.0" y="159.343283582"/>
      <point x="12" y="328" type="qcurve" smooth="yes"/>
      <point x="12.0" y="503.373134328"/>
      <point x="242.880597015" y="765.223880597"/>
      <point x="469" y="860" type="qcurve"/>
      <point x="442.880597015" y="928.656716418"/>
      <point x="424.0" y="1043.28358209"/>
      <point x="424" y="1100" type="qcurve" smooth="yes"/>
      <point x="424.0" y="1269.40298507"/>
      <point x="658.925373134" y="1499.0"/>
      <point x="844" y="1499" type="qcurve" smooth="yes"/>
      <point x="1005.94029851" y="1499.0"/>
      <point x="1174.0" y="1347.3880597"/>
      <point x="1174" y="1225" type="qcurve" smooth="yes"/>
      <point x="1174.0" y="1092.1641791"/>
      <point x="970.567164179" y="892.373134328"/>
      <point x="784" y="817" type="qcurve"/>
      <point x="833.253731343" y="708.791044776"/>
      <point x="917.23880597" y="547.119402985"/>
      <point x="965" y="471" type="qcurve"/>
      <point x="1038.13432836" y="552.343283582"/>
      <point x="1184.82089552" y="761.791044776"/>
    </contour>
    <contour>
      <point x="528" y="197" type="qcurve" smooth="yes"/>
      <point x="584.71641791" y="197.0"/>
      <point x="699.791044776" y="241.71641791"/>
      <point x="758" y="285" type="qcurve"/>
      <point x="701.28358209" y="376.791044776"/>
      <point x="601.208955224" y="572.910447761"/>
      <point x="543" y="705" type="qcurve"/>
      <point x="423.597014925" y="643.805970149"/>
      <point x="311.0" y="486.28358209"/>
      <point x="311" y="393" type="qcurve" smooth="yes"/>
      <point x="311.0" y="301.208955224"/>
      <point x="427.253731343" y="197.0"/>
    </contour>
    <contour>
      <point x="709" y="952" type="qcurve"/>
      <point x="830.641791045" y="1004.23880597"/>
      <point x="940.0" y="1125.91044776"/>
      <point x="940" y="1208" type="qcurve" smooth="yes"/>
      <point x="940.0" y="1258.74626866"/>
      <point x="884.731343284" y="1325.0"/>
      <point x="831" y="1325" type="qcurve" smooth="yes"/>
      <point x="756.373134328" y="1325.0"/>
      <point x="674.0" y="1207.62686567"/>
      <point x="674" y="1133" type="qcurve" smooth="yes"/>
      <point x="674.0" y="1086.73134328"/>
      <point x="688.850746269" y="1002.74626866"/>
    </contour>
  </outline>
</glyph>
<glyph name="quotesingle" format="1">
  <advance width="483.328"/>
  <unicode hex="0027"/>
  <outline>
    <contour>
      <point x="276" y="1475" type="line"/>
      <point x="604" y="1475" type="line"/>
      <point x="381" y="901" type="line"/>
      <point x="213" y="901" type="line"/>
    </contour>
  </outline>
</glyph>
<glyph name="parenright" format="1">
  <advance width="763.904"/>
  <unicode hex="0029"/>
  <outline>
    <contour>
      <point x="500" y="1505" type="line"/>
      <point x="593.28358209" y="1372.1641791"/>
      <point x="721.0" y="1038.50746269"/>
      <point x="721" y="840" type="qcurve" smooth="yes"/>
      <point x="721.0" y="537.014925373"/>
      <point x="406.313432836" y="1.26865671642"/>
      <point x="119" y="-195" type="qcurve"/>
      <point x="-174" y="-195" type="line"/>
      <point x="145.402985075" y="63.9552238806"/>
      <point x="401.0" y="598.865671642"/>
      <point x="401" y="872" type="qcurve" smooth="yes"/>
      <point x="401.0" y="1055.58208955"/>
      <point x="329.611940299" y="1346.04477612"/>
      <point x="252" y="1505" type="qcurve"/>
    </contour>
  </outline>
</glyph>
<glyph name="comma" format="1">
  <advance width="483.328"/>
  <unicode hex="002C"/>
  <outline>
    <contour>
      <point x="57" y="338" type="line"/>
      <point x="395" y="338" type="line"/>
      <point x="37" y="-236" type="line"/>
      <point x="-141" y="-236" type="line"/>
    </contour>
  </outline>
</glyph>
<glyph name="two" format="1">
  <advance width="1153.024"/>
  <unicode hex="0032"/>
  <outline>
    <contour>
      <point x="780" y="1499" type="qcurve" smooth="yes"/>
      <point x="975.52238806" y="1499.0"/>
      <point x="1192.0" y="1301.95522388"/>
      <point x="1192" y="1143" type="qcurve" smooth="yes"/>
      <point x="1192.0" y="966.880597015"/>
      <point x="972.731343284" y="705.0"/>
      <point x="719" y="555" type="qcurve" smooth="yes"/>
      <point x="564.52238806" y="464.701492537"/>
      <point x="386.537313433" y="311.358208955"/>
      <point x="344" y="233" type="qcurve"/>
      <point x="1004" y="233" type="line"/>
      <point x="946" y="0" type="line"/>
      <point x="-53" y="0" type="line"/>
      <point x="-6" y="193" type="line"/>
      <point x="77.5820895522" y="343.746268657"/>
      <point x="342.791044776" y="598.134328358"/>
      <point x="551" y="725" type="qcurve" smooth="yes"/>
      <point x="733.089552239" y="834.701492537"/>
      <point x="887.0" y="1007.76119403"/>
      <point x="887" y="1110" type="qcurve" smooth="yes"/>
      <point x="887.0" y="1177.1641791"/>
      <point x="805.119402985" y="1262.0"/>
      <point x="729" y="1262" type="qcurve" smooth="yes"/>
      <point x="655.865671642" y="1262.0"/>
      <point x="506.805970149" y="1154.41791045"/>
      <point x="418" y="1038" type="qcurve"/>
      <point x="193" y="1178" type="line"/>
      <point x="317.626865672" y="1339.94029851"/>
      <point x="597.164179104" y="1499.0"/>
    </contour>
  </outline>
</glyph>
<glyph name="three" format="1">
  <advance width="1112.064"/>
  <unicode hex="0033"/>
  <outline>
    <contour>
      <point x="739" y="1499" type="qcurve" smooth="yes"/>
      <point x="927.059701493" y="1499.0"/>
      <point x="1128.0" y="1334.29850746"/>
      <point x="1128" y="1194" type="qcurve" smooth="yes"/>
      <point x="1128.0" y="1056.68656716"/>
      <point x="924.552238806" y="876.701492537"/>
      <point x="735" y="817" type="qcurve"/>
      <point x="735" y="809" type="line"/>
      <point x="882.014925373" y="800.044776119"/>
      <point x="1057.0" y="658.029850746"/>
      <point x="1057" y="514" type="qcurve" smooth="yes"/>
      <point x="1057.0" y="275.940298507"/>
      <point x="558.507462687" y="-10.0"/>
      <point x="160" y="-10" type="qcurve" smooth="yes"/>
      <point x="98.8059701493" y="-10.0"/>
      <point x="-27.3134328358" y="-3.97014925373"/>
      <point x="-90" y="2" type="qcurve"/>
      <point x="-43" y="223" type="line"/>
      <point x="7.74626865672" y="220.014925373"/>
      <point x="87.4776119403" y="215.0"/>
      <point x="133" y="215" type="qcurve" smooth="yes"/>
      <point x="414.343283582" y="215.0"/>
      <point x="733.0" y="373.671641791"/>
      <point x="733" y="508" type="qcurve" smooth="yes"/>
      <point x="733.0" y="592.328358209"/>
      <point x="623.567164179" y="672.0"/>
      <point x="537" y="672" type="qcurve" smooth="yes"/>
      <point x="498.194029851" y="672.0"/>
      <point x="417.537313433" y="661.208955224"/>
      <point x="375" y="653" type="qcurve"/>
      <point x="346" y="842" type="line"/>
      <point x="633.313432836" y="915.134328358"/>
      <point x="817.0" y="1057.68656716"/>
      <point x="817" y="1145" type="qcurve" smooth="yes"/>
      <point x="817.0" y="1204.70149254"/>
      <point x="742.626865672" y="1270.0"/>
      <point x="668" y="1270" type="qcurve" smooth="yes"/>
      <point x="592.626865672" y="1270.0"/>
      <point x="433.791044776" y="1206.1641791"/>
      <point x="342" y="1139" type="qcurve"/>
      <point x="213" y="1305" type="line"/>
      <point x="341.358208955" y="1401.26865672"/>
      <point x="601.686567164" y="1499.0"/>
    </contour>
  </outline>
</glyph>
<glyph name="seven" format="1">
  <advance width="1107.968"/>
  <unicode hex="0037"/>
  <outline>
    <contour>
      <point x="266" y="1475" type="line"/>
      <point x="1300" y="1475" type="line"/>
      <point x="1255" y="1292" type="line"/>
      <point x="998.28358209" y="1032.29850746"/>
      <point x="538.014925373" y="342.537313433"/>
      <point x="391" y="0" type="qcurve"/>
      <point x="47" y="0" type="line"/>
      <point x="194.014925373" y="314.925373134"/>
      <point x="637.268656716" y="960.552238806"/>
      <point x="891" y="1221" type="qcurve"/>
      <point x="203" y="1221" type="line"/>
    </contour>
  </outline>
</glyph>
<glyph name="greater" format="1">
  <advance width="1228.8"/>
  <unicode hex="003E"/>
  <outline>
    <contour>
      <point x="1190" y="850" type="line"/>
      <point x="1190" y="604" type="line"/>
      <point x="141" y="154" type="line"/>
      <point x="141" y="426" type="line"/>
      <point x="895" y="727" type="line"/>
      <point x="141" y="1028" type="line"/>
      <point x="141" y="1300" type="line"/>
    </contour>
  </outline>
</glyph>
<glyph name="C" format="1">
  <advance width="1239.04"/>
  <unicode hex="0043"/>
  <outline>
    <contour>
      <point x="831" y="1499" type="qcurve" smooth="yes"/>
      <point x="1081.74626866" y="1499.0"/>
      <point x="1302.65671642" y="1218.10447761"/>
      <point x="1284" y="989" type="qcurve"/>
      <point x="963" y="930" type="line"/>
      <point x="976.432835821" y="1094.92537313"/>
      <point x="899.268656716" y="1251.0"/>
      <point x="803" y="1251" type="qcurve" smooth="yes"/>
      <point x="695.537313433" y="1251.0"/>
      <point x="535.71641791" y="1005.47761194"/>
      <point x="479" y="801" type="qcurve" smooth="yes"/>
      <point x="449.895522388" y="692.044776119"/>
      <point x="424.0" y="523.686567164"/>
      <point x="424" y="461" type="qcurve" smooth="yes"/>
      <point x="424" y="455" type="line" smooth="yes"/>
      <point x="424.0" y="355.746268657"/>
      <point x="511.671641791" y="223.0"/>
      <point x="596" y="223" type="qcurve" smooth="yes"/>
      <point x="684.805970149" y="223.0"/>
      <point x="813.552238806" y="367.014925373"/>
      <point x="874" y="520" type="qcurve"/>
      <point x="1163" y="432" type="line"/>
      <point x="1065.23880597" y="201.402985075"/>
      <point x="789.149253731" y="-25.0"/>
      <point x="569" y="-25" type="qcurve" smooth="yes"/>
      <point x="354.074626866" y="-25.0"/>
      <point x="96.0" y="232.910447761"/>
      <point x="96" y="465" type="qcurve" smooth="yes"/>
      <point x="96" y="473" type="line" smooth="yes"/>
      <point x="96.0" y="531.208955224"/>
      <point x="114.074626866" y="693.343283582"/>
      <point x="129" y="762" type="qcurve" smooth="yes"/>
      <point x="208.850746269" y="1116.47761194"/>
      <point x="556.373134328" y="1499.0"/>
    </contour>
  </outline>
</glyph>
<glyph name="E" format="1">
  <advance width="1144.832"/>
  <unicode hex="0045"/>
  <outline>
    <contour>
      <point x="350" y="1475" type="line"/>
      <point x="1292" y="1475" type="line"/>
      <point x="1229" y="1221" type="line"/>
      <point x="610" y="1221" type="line"/>
      <point x="524" y="881" type="line"/>
      <point x="987" y="881" type="line"/>
      <point x="928" y="641" type="line"/>
      <point x="465" y="641" type="line"/>
      <point x="369" y="254" type="line"/>
      <point x="1012" y="254" type="line"/>
      <point x="948" y="0" type="line"/>
      <point x="-16" y="0" type="line"/>
    </contour>
  </outline>
</glyph>
<glyph name="G" format="1">
  <advance width="1323.008"/>
  <unicode hex="0047"/>
  <outline>
    <contour>
      <point x="838" y="1499" type="qcurve" smooth="yes"/>
      <point x="1090.23880597" y="1499.0"/>
      <point x="1308.20895522" y="1232.20895522"/>
      <point x="1300" y="1024" type="qcurve"/>
      <point x="977" y="963" type="line"/>
      <point x="981.47761194" y="1106.28358209"/>
      <point x="905.776119403" y="1251.0"/>
      <point x="811" y="1251" type="qcurve" smooth="yes"/>
      <point x="696.074626866" y="1251.0"/>
      <point x="535.71641791" y="1005.47761194"/>
      <point x="479" y="801" type="qcurve" smooth="yes"/>
      <point x="449.895522388" y="692.044776119"/>
      <point x="424.0" y="522.701492537"/>
      <point x="424" y="463" type="qcurve" smooth="yes"/>
      <point x="424" y="455" type="line" smooth="yes"/>
      <point x="424.0" y="355.746268657"/>
      <point x="514.179104478" y="223.0"/>
      <point x="600" y="223" type="qcurve" smooth="yes"/>
      <point x="687.313432836" y="223.0"/>
      <point x="843.805970149" y="393.462686567"/>
      <point x="905" y="586" type="qcurve"/>
      <point x="672" y="586" type="line"/>
      <point x="705" y="713" type="line"/>
      <point x="1270" y="713" type="line"/>
      <point x="1090" y="-4" type="line"/>
      <point x="965" y="-4" type="line"/>
      <point x="997" y="289" type="line"/>
      <point x="987" y="289" type="line"/>
      <point x="901.179104478" y="140.492537313"/>
      <point x="691.776119403" y="-25.0"/>
      <point x="547" y="-25" type="qcurve" smooth="yes"/>
      <point x="340.28358209" y="-25.0"/>
      <point x="96.0" y="234.402985075"/>
      <point x="96" y="465" type="qcurve" smooth="yes"/>
      <point x="96" y="473" type="line" smooth="yes"/>
      <point x="96.0" y="531.208955224"/>
      <point x="114.074626866" y="693.343283582"/>
      <point x="129" y="762" type="qcurve" smooth="yes"/>
      <point x="208.850746269" y="1116.47761194"/>
      <point x="556.656716418" y="1499.0"/>
    </contour>
  </outline>
</glyph>
<glyph name="P" format="1">
  <advance width="1204.224"/>
  <unicode hex="0050"/>
  <outline>
    <contour>
      <point x="797" y="1475" type="line" smooth="yes"/>
      <point x="1032.07462687" y="1475.0"/>
      <point x="1278.0" y="1280.32835821"/>
      <point x="1278" y="1096" type="qcurve" smooth="yes"/>
      <point x="1278.0" y="852.71641791"/>
      <point x="929.835820896" y="565.0"/>
      <point x="647" y="565" type="qcurve" smooth="yes"/>
      <point x="451" y="565" type="line"/>
      <point x="311" y="0" type="line"/>
      <point x="-16" y="0" type="line"/>
      <point x="350" y="1475" type="line"/>
    </contour>
    <contour>
      <point x="649" y="801" type="line" smooth="yes"/>
      <point x="784.820895522" y="801.0"/>
      <point x="954.0" y="944.104477612"/>
      <point x="954" y="1065" type="qcurve" smooth="yes"/>
      <point x="954.0" y="1156.79104478"/>
      <point x="841.925373134" y="1243.0"/>
      <point x="727" y="1243" type="qcurve" smooth="yes"/>
      <point x="608" y="1243" type="line"/>
      <point x="498" y="801" type="line"/>
    </contour>
  </outline>
</glyph>
<glyph name="T" format="1">
  <advance width="1202.176"/>
  <unicode hex="0054"/>
  <outline>
    <contour>
      <point x="270" y="1475" type="line"/>
      <point x="1395" y="1475" type="line"/>
      <point x="1327" y="1202" type="line"/>
      <point x="928" y="1202" type="line"/>
      <point x="631" y="0" type="line"/>
      <point x="303" y="0" type="line"/>
      <point x="600" y="1202" type="line"/>
      <point x="201" y="1202" type="line"/>
    </contour>
  </outline>
</glyph>
<glyph name="W" format="1">
  <advance width="2027.52"/>
  <unicode hex="0057"/>
  <outline>
    <contour>
      <point x="1862" y="1475" type="line"/>
      <point x="2202" y="1475" type="line"/>
      <point x="1468" y="-10" type="line"/>
      <point x="1120" y="-10" type="line"/>
      <point x="1137" y="1059" type="line"/>
      <point x="1124" y="1059" type="line"/>
      <point x="612" y="-10" type="line"/>
      <point x="262" y="-10" type="line"/>
      <point x="270" y="1475" type="line"/>
      <point x="600" y="1475" type="line"/>
      <point x="539" y="387" type="line"/>
      <point x="551" y="387" type="line"/>
      <point x="1057" y="1475" type="line"/>
      <point x="1403" y="1475" type="line"/>
      <point x="1370" y="387" type="line"/>
      <point x="1380" y="387" type="line"/>
    </contour>
  </outline>
</glyph>
<glyph name="X" format="1">
  <advance width="1318.912"/>
  <unicode hex="0058"/>
  <outline>
    <contour>
      <point x="1153" y="1475" type="line"/>
      <point x="1493" y="1475" type="line"/>
      <point x="885" y="764" type="line"/>
      <point x="1151" y="0" type="line"/>
      <point x="801" y="0" type="line"/>
      <point x="641" y="496" type="line"/>
      <point x="233" y="0" type="line"/>
      <point x="-106" y="0" type="line"/>
      <point x="541" y="756" type="line"/>
      <point x="291" y="1475" type="line"/>
      <point x="641" y="1475" type="line"/>
      <point x="784" y="1024" type="line"/>
    </contour>
  </outline>
</glyph>
<glyph name="Y" format="1">
  <advance width="1308.672"/>
  <unicode hex="0059"/>
  <outline>
    <contour>
      <point x="1198" y="1475" type="line"/>
      <point x="1524" y="1475" type="line"/>
      <point x="827" y="582" type="line"/>
      <point x="682" y="0" type="line"/>
      <point x="354" y="0" type="line"/>
      <point x="498" y="575" type="line"/>
      <point x="250" y="1475" type="line"/>
      <point x="600" y="1475" type="line"/>
      <point x="748" y="870" type="line"/>
    </contour>
  </outline>
</glyph>
<glyph name="asciicircum" format="1">
  <advance width="1126.4"/>
  <unicode hex="005E"/>
  <outline>
    <contour>
      <point x="940" y="1485" type="line"/>
      <point x="1135" y="834" type="line"/>
      <point x="942" y="834" type="line"/>
      <point x="737" y="1223" type="line"/>
      <point x="342" y="834" type="line"/>
      <point x="131" y="834" type="line"/>
      <point x="651" y="1485" type="line"/>
    </contour>
  </outline>
</glyph>
<glyph name="c" format="1">
  <advance width="995.328"/>
  <unicode hex="0063"/>
  <outline>
    <contour>
      <point x="641" y="1110" type="qcurve" smooth="yes"/>
      <point x="841.0" y="1110.0"/>
      <point x="1005.71641791" y="906.641791045"/>
      <point x="999" y="735" type="qcurve"/>
      <point x="711" y="700" type="line"/>
      <point x="716.970149254" y="805.970149254"/>
      <point x="676.686567164" y="911.0"/>
      <point x="614" y="911" type="qcurve" smooth="yes"/>
      <point x="534.895522388" y="911.0"/>
      <point x="421.537313433" y="726.940298507"/>
      <point x="379" y="565" type="qcurve" smooth="yes"/>
      <point x="360.343283582" y="499.328358209"/>
      <point x="342.0" y="379.52238806"/>
      <point x="342" y="334" type="qcurve" smooth="yes"/>
      <point x="342" y="330" type="line" smooth="yes"/>
      <point x="342.0" y="256.119402985"/>
      <point x="404.76119403" y="178.0"/>
      <point x="457" y="178" type="qcurve" smooth="yes"/>
      <point x="507.0" y="178.0"/>
      <point x="596.492537313" y="264.71641791"/>
      <point x="645" y="358" type="qcurve"/>
      <point x="905" y="283" type="line"/>
      <point x="831.865671642" y="143.447761194"/>
      <point x="608.149253731" y="-20.0"/>
      <point x="438" y="-20" type="qcurve" smooth="yes"/>
      <point x="256.656716418" y="-20.0"/>
      <point x="41.0" y="175.955223881"/>
      <point x="41" y="367" type="qcurve" smooth="yes"/>
      <point x="41" y="371" type="line" smooth="yes"/>
      <point x="41.0" y="416.52238806"/>
      <point x="57.8208955224" y="535.28358209"/>
      <point x="72" y="592" type="qcurve" smooth="yes"/>
      <point x="133.194029851" y="830.059701493"/>
      <point x="411.895522388" y="1110.0"/>
    </contour>
  </outline>
</glyph>
<glyph name="g" format="1">
  <advance width="1116.16"/>
  <unicode hex="0067"/>
  <outline>
    <contour>
      <point x="844" y="1108" type="line"/>
      <point x="1141" y="1059" type="line"/>
      <point x="899" y="94" type="line" smooth="yes"/>
      <point x="831.835820896" y="-174.656716418"/>
      <point x="543.880597015" y="-391.0"/>
      <point x="270" y="-391" type="qcurve" smooth="yes"/>
      <point x="166.268656716" y="-391.0"/>
      <point x="8.19402985075" y="-363.134328358"/>
      <point x="-53" y="-340" type="qcurve"/>
      <point x="-4" y="-139" type="line"/>
      <point x="57" y="-139" type="line"/>
      <point x="80.1343283582" y="-174.074626866"/>
      <point x="183.940298507" y="-229.0"/>
      <point x="272" y="-229" type="qcurve" smooth="yes"/>
      <point x="391.402985075" y="-229.0"/>
      <point x="540.686567164" y="-93.8059701493"/>
      <point x="578" y="45" type="qcurve" smooth="yes"/>
      <point x="625" y="225" type="line"/>
      <point x="614" y="225" type="line"/>
      <point x="507.28358209" y="96.6417910448"/>
      <point x="346.328358209" y="-16.0"/>
      <point x="262" y="-16" type="qcurve" smooth="yes"/>
      <point x="152.298507463" y="-16.0"/>
      <point x="37.0" y="148.432835821"/>
      <point x="37" y="285" type="qcurve" smooth="yes"/>
      <point x="37" y="289" type="line" smooth="yes"/>
      <point x="37.0" y="599.447761194"/>
      <point x="329.910447761" y="1106.0"/>
      <point x="512" y="1106" type="qcurve" smooth="yes"/>
      <point x="606.776119403" y="1106.0"/>
      <point x="719.313432836" y="1011.44776119"/>
      <point x="782" y="901" type="qcurve"/>
      <point x="793" y="901" type="line"/>
    </contour>
    <contour>
      <point x="442" y="193" type="qcurve" smooth="yes"/>
      <point x="546.47761194" y="193.0"/>
      <point x="739.0" y="605.119402985"/>
      <point x="739" y="729" type="qcurve" smooth="yes"/>
      <point x="739.0" y="814.820895522"/>
      <point x="673.985074627" y="920.0"/>
      <point x="621" y="920" type="qcurve" smooth="yes"/>
      <point x="515.029850746" y="920.0"/>
      <point x="344.0" y="526.149253731"/>
      <point x="344" y="356" type="qcurve" smooth="yes"/>
      <point x="344.0" y="276.895522388"/>
      <point x="387.52238806" y="193.0"/>
    </contour>
  </outline>
</glyph>
<glyph name="k" format="1">
  <advance width="1105.92"/>
  <unicode hex="006B"/>
  <outline>
    <contour>
      <point x="889" y="1090" type="line"/>
      <point x="1225" y="1090" type="line"/>
      <point x="748" y="555" type="line"/>
      <point x="971" y="0" type="line"/>
      <point x="647" y="0" type="line"/>
      <point x="442" y="557" type="line"/>
      <point x="442" y="569" type="line"/>
    </contour>
    <contour>
      <point x="342" y="1501" type="line"/>
      <point x="662" y="1550" type="line"/>
      <point x="276" y="0" type="line"/>
      <point x="-33" y="0" type="line"/>
    </contour>
  </outline>
</glyph>
<glyph name="l" format="1">
  <advance width="536.576"/>
  <unicode hex="006C"/>
  <outline>
    <contour>
      <point x="352" y="1501" type="line"/>
      <point x="672" y="1550" type="line"/>
      <point x="287" y="0" type="line"/>
      <point x="-20" y="0" type="line"/>
    </contour>
  </outline>
</glyph>
<glyph name="m" format="1">
  <advance width="1687.552"/>
  <unicode hex="006D"/>
  <outline>
    <contour>
      <point x="1470" y="1104" type="qcurve" smooth="yes"/>
      <point x="1568.50746269" y="1104.0"/>
      <point x="1671.0" y="995.776119403"/>
      <point x="1671" y="901" type="qcurve" smooth="yes"/>
      <point x="1671.0" y="874.880597015"/>
      <point x="1660.46268657" y="809.582089552"/>
      <point x="1653" y="776" type="qcurve" smooth="yes"/>
      <point x="1460" y="0" type="line"/>
      <point x="1151" y="0" type="line"/>
      <point x="1327" y="702" type="line" smooth="yes"/>
      <point x="1332.97014925" y="725.134328358"/>
      <point x="1339.0" y="768.089552239"/>
      <point x="1339" y="786" type="qcurve" smooth="yes"/>
      <point x="1339.0" y="827.791044776"/>
      <point x="1295.26865672" y="872.0"/>
      <point x="1249" y="872" type="qcurve" smooth="yes"/>
      <point x="1209.44776119" y="872.0"/>
      <point x="1114.19402985" y="809.895522388"/>
      <point x="1053" y="739" type="qcurve"/>
      <point x="868" y="0" type="line"/>
      <point x="559" y="0" type="line"/>
      <point x="735" y="702" type="line" smooth="yes"/>
      <point x="740.970149254" y="725.134328358"/>
      <point x="748.0" y="768.089552239"/>
      <point x="748" y="786" type="qcurve" smooth="yes"/>
      <point x="748.0" y="827.791044776"/>
      <point x="702.76119403" y="872.0"/>
      <point x="655" y="872" type="qcurve" smooth="yes"/>
      <point x="616.940298507" y="872.0"/>
      <point x="522.194029851" y="807.656716418"/>
      <point x="461" y="739" type="qcurve"/>
      <point x="276" y="0" type="line"/>
      <point x="-33" y="0" type="line"/>
      <point x="231" y="1059" type="line"/>
      <point x="551" y="1108" type="line"/>
      <point x="487" y="844" type="line"/>
      <point x="496" y="844" type="line"/>
      <point x="608.686567164" y="976.835820896"/>
      <point x="784.223880597" y="1104.0"/>
      <point x="879" y="1104" type="qcurve" smooth="yes"/>
      <point x="976.76119403" y="1104.0"/>
      <point x="1079.0" y="995.776119403"/>
      <point x="1079" y="901" type="qcurve" smooth="yes"/>
      <point x="1079.0" y="890.552238806"/>
      <point x="1075.47761194" y="858.925373134"/>
      <point x="1071" y="844" type="qcurve"/>
      <point x="1085" y="844" type="line"/>
      <point x="1198.43283582" y="976.835820896"/>
      <point x="1375.2238806" y="1104.0"/>
    </contour>
  </outline>
</glyph>
<glyph name="n" format="1">
  <advance width="1099.776"/>
  <unicode hex="006E"/>
  <outline>
    <contour>
      <point x="881" y="1104" type="qcurve" smooth="yes"/>
      <point x="980.253731343" y="1104.0"/>
      <point x="1083.0" y="995.776119403"/>
      <point x="1083" y="901" type="qcurve" smooth="yes"/>
      <point x="1083.0" y="874.880597015"/>
      <point x="1072.46268657" y="809.582089552"/>
      <point x="1065" y="776" type="qcurve" smooth="yes"/>
      <point x="872" y="0" type="line"/>
      <point x="563" y="0" type="line"/>
      <point x="739" y="702" type="line" smooth="yes"/>
      <point x="745.71641791" y="725.134328358"/>
      <point x="752.0" y="768.089552239"/>
      <point x="752" y="786" type="qcurve" smooth="yes"/>
      <point x="752.0" y="827.791044776"/>
      <point x="706.76119403" y="872.0"/>
      <point x="659" y="872" type="qcurve" smooth="yes"/>
      <point x="619.447761194" y="872.0"/>
      <point x="523.686567164" y="807.149253731"/>
      <point x="461" y="737" type="qcurve"/>
      <point x="276" y="0" type="line"/>
      <point x="-33" y="0" type="line"/>
      <point x="231" y="1059" type="line"/>
      <point x="551" y="1108" type="line"/>
      <point x="487" y="844" type="line"/>
      <point x="496" y="844" type="line"/>
      <point x="608.686567164" y="976.835820896"/>
      <point x="787.71641791" y="1104.0"/>
    </contour>
  </outline>
</glyph>
<glyph name="q" format="1">
  <advance width="1116.16"/>
  <unicode hex="0071"/>
  <outline>
    <contour>
      <point x="844" y="1108" type="line"/>
      <point x="1141" y="1059" type="line"/>
      <point x="780" y="-385" type="line"/>
      <point x="471" y="-385" type="line"/>
      <point x="625" y="225" type="line"/>
      <point x="614" y="225" type="line"/>
      <point x="507.28358209" y="96.6417910448"/>
      <point x="346.328358209" y="-16.0"/>
      <point x="262" y="-16" type="qcurve" smooth="yes"/>
      <point x="152.298507463" y="-16.0"/>
      <point x="37.0" y="148.432835821"/>
      <point x="37" y="285" type="qcurve" smooth="yes"/>
      <point x="37" y="289" type="line" smooth="yes"/>
      <point x="37.0" y="599.447761194"/>
      <point x="329.910447761" y="1106.0"/>
      <point x="512" y="1106" type="qcurve" smooth="yes"/>
      <point x="606.776119403" y="1106.0"/>
      <point x="719.313432836" y="1011.44776119"/>
      <point x="782" y="901" type="qcurve"/>
      <point x="793" y="901" type="line"/>
    </contour>
    <contour>
      <point x="442" y="193" type="qcurve" smooth="yes"/>
      <point x="546.47761194" y="193.0"/>
      <point x="739.0" y="605.119402985"/>
      <point x="739" y="729" type="qcurve" smooth="yes"/>
      <point x="739.0" y="814.820895522"/>
      <point x="673.985074627" y="920.0"/>
      <point x="621" y="920" type="qcurve" smooth="yes"/>
      <point x="515.029850746" y="920.0"/>
      <point x="344.0" y="526.149253731"/>
      <point x="344" y="356" type="qcurve" smooth="yes"/>
      <point x="344.0" y="276.895522388"/>
      <point x="387.52238806" y="193.0"/>
    </contour>
  </outline>
</glyph>
<glyph name="z" format="1">
  <advance width="931.84"/>
  <unicode hex="007A"/>
  <outline>
    <contour>
      <point x="219" y="1087" type="line"/>
      <point x="1018" y="1087" type="line"/>
      <point x="973" y="905" type="line"/>
      <point x="317" y="207" type="line"/>
      <point x="799" y="207" type="line"/>
      <point x="745" y="0" type="line"/>
      <point x="-84" y="0" type="line"/>
      <point x="-37" y="182" type="line"/>
      <point x="616" y="881" type="line"/>
      <point x="166" y="881" type="line"/>
    </contour>
  </outline>
</glyph>
<glyph name="exclamdown" format="1">
  <advance width="575.488"/>
  <unicode hex="00A1"/>
  <outline>
    <contour>
      <point x="475" y="1489" type="qcurve" smooth="yes"/>
      <point x="546.641791045" y="1489.0"/>
      <point x="645.0" y="1390.64179104"/>
      <point x="645" y="1319" type="qcurve" smooth="yes"/>
      <point x="645.0" y="1245.86567164"/>
      <point x="546.641791045" y="1149.0"/>
      <point x="475" y="1149" type="qcurve" smooth="yes"/>
      <point x="401.865671642" y="1149.0"/>
      <point x="305.0" y="1245.86567164"/>
      <point x="305" y="1319" type="qcurve" smooth="yes"/>
      <point x="305.0" y="1390.64179104"/>
      <point x="401.865671642" y="1489.0"/>
    </contour>
    <contour>
      <point x="311" y="993" type="line"/>
      <point x="494" y="993" type="line"/>
      <point x="332" y="0" type="line"/>
      <point x="-39" y="0" type="line"/>
    </contour>
  </outline>
</glyph>
<glyph name="cent" format="1">
  <advance width="1021.952"/>
  <unicode hex="00A2"/>
  <outline>
    <contour>
      <point x="999" y="1284" type="line"/>
      <point x="1174" y="1284" type="line"/>
      <point x="375" y="199" type="line"/>
      <point x="392.910447761" y="186.313432836"/>
      <point x="441.388059701" y="174.0"/>
      <point x="469" y="174" type="qcurve" smooth="yes"/>
      <point x="525.71641791" y="174.0"/>
      <point x="626.776119403" y="253.223880597"/>
      <point x="682" y="348" type="qcurve"/>
      <point x="907" y="283" type="line"/>
      <point x="833.865671642" y="143.447761194"/>
      <point x="610.149253731" y="-20.0"/>
      <point x="440" y="-20" type="qcurve" smooth="yes"/>
      <point x="384.029850746" y="-20.0"/>
      <point x="283.044776119" y="-1.91044776119"/>
      <point x="242" y="16" type="qcurve"/>
      <point x="86" y="-195" type="line"/>
      <point x="-88" y="-195" type="line"/>
      <point x="135" y="90" type="line"/>
      <point x="89.4776119403" y="137.76119403"/>
      <point x="41.0" y="276.701492537"/>
      <point x="41" y="367" type="qcurve" smooth="yes"/>
      <point x="41" y="371" type="line" smooth="yes"/>
      <point x="41.0" y="416.52238806"/>
      <point x="57.8208955224" y="535.28358209"/>
      <point x="72" y="592" type="qcurve" smooth="yes"/>
      <point x="133.194029851" y="830.059701493"/>
      <point x="412.880597015" y="1110.0"/>
      <point x="639" y="1110" type="qcurve" smooth="yes"/>
      <point x="701.686567164" y="1110.0"/>
      <point x="800.23880597" y="1088.13432836"/>
      <point x="848" y="1065" type="qcurve"/>
    </contour>
    <contour>
      <point x="317" y="295" type="qcurve"/>
      <point x="725" y="885" type="line"/>
      <point x="703.358208955" y="899.925373134"/>
      <point x="653.089552239" y="915.0"/>
      <point x="621" y="915" type="qcurve" smooth="yes"/>
      <point x="535.179104478" y="915.0"/>
      <point x="399.76119403" y="738.641791045"/>
      <point x="352" y="567" type="qcurve" smooth="yes"/>
      <point x="334.089552239" y="498.343283582"/>
      <point x="313.0" y="392.776119403"/>
      <point x="313" y="348" type="qcurve" smooth="yes"/>
      <point x="313" y="344" type="line" smooth="yes"/>
      <point x="313.0" y="330.567164179"/>
      <point x="315.507462687" y="306.940298507"/>
    </contour>
  </outline>
</glyph>
<glyph name="yen" format="1">
  <advance width="1310.72"/>
  <unicode hex="00A5"/>
  <outline>
    <contour>
      <point x="1192" y="1475" type="line"/>
      <point x="1522" y="1475" type="line"/>
      <point x="1014" y="829" type="line"/>
      <point x="1268" y="829" type="line"/>
      <point x="1229" y="676" type="line"/>
      <point x="893" y="676" type="line"/>
      <point x="819" y="582" type="line"/>
      <point x="782" y="438" type="line"/>
      <point x="1171" y="438" type="line"/>
      <point x="1133" y="285" type="line"/>
      <point x="743" y="285" type="line"/>
      <point x="674" y="0" type="line"/>
      <point x="367" y="0" type="line"/>
      <point x="436" y="285" type="line"/>
      <point x="49" y="285" type="line"/>
      <point x="88" y="438" type="line"/>
      <point x="475" y="438" type="line"/>
      <point x="510" y="575" type="line"/>
      <point x="481" y="676" type="line"/>
      <point x="145" y="676" type="line"/>
      <point x="184" y="829" type="line"/>
      <point x="438" y="829" type="line"/>
      <point x="254" y="1475" type="line"/>
      <point x="582" y="1475" type="line"/>
      <point x="727" y="836" type="line"/>
    </contour>
  </outline>
</glyph>
<glyph name="dieresis" format="1">
  <advance width="1024.0"/>
  <unicode hex="00A8"/>
  <outline>
    <contour>
      <point x="414" y="1470" type="line"/>
      <point x="659" y="1470" type="line"/>
      <point x="594" y="1212" type="line"/>
      <point x="350" y="1212" type="line"/>
    </contour>
    <contour>
      <point x="825" y="1470" type="line"/>
      <point x="1071" y="1470" type="line"/>
      <point x="1006" y="1212" type="line"/>
      <point x="760" y="1212" type="line"/>
    </contour>
  </outline>
</glyph>
<glyph name="copyright" format="1">
  <advance width="1679.36"/>
  <unicode hex="00A9"/>
  <outline>
    <contour>
      <point x="1022" y="637" type="qcurve"/>
      <point x="1210" y="592" type="line"/>
      <point x="1184.62686567" y="453.194029851"/>
      <point x="1023.80597015" y="301.0"/>
      <point x="885" y="301" type="qcurve" smooth="yes"/>
      <point x="732.014925373" y="301.0"/>
      <point x="543.0" y="517.507462687"/>
      <point x="543" y="719" type="qcurve" smooth="yes"/>
      <point x="543" y="776" type="line" smooth="yes"/>
      <point x="543.0" y="978.23880597"/>
      <point x="732.52238806" y="1192.0"/>
      <point x="887" y="1192" type="qcurve" smooth="yes"/>
      <point x="1036.25373134" y="1192.0"/>
      <point x="1185.10447761" y="1032.37313433"/>
      <point x="1206" y="907" type="qcurve"/>
      <point x="1010" y="860" type="line"/>
      <point x="995.820895522" y="951.791044776"/>
      <point x="939.985074627" y="1034.0"/>
      <point x="887" y="1034" type="qcurve" smooth="yes"/>
      <point x="816.850746269" y="1034.0"/>
      <point x="756.0" y="906.223880597"/>
      <point x="756" y="801" type="qcurve" smooth="yes"/>
      <point x="756" y="694" type="line" smooth="yes"/>
      <point x="756.0" y="590.268656716"/>
      <point x="816.850746269" y="461.0"/>
      <point x="887" y="461" type="qcurve" smooth="yes"/>
      <point x="943.71641791" y="461.0"/>
      <point x="1003.34328358" y="545.208955224"/>
    </contour>
    <contour>
      <point x="889" y="1499" type="qcurve" smooth="yes"/>
      <point x="1214.37313433" y="1499.0"/>
      <point x="1649.0" y="1063.62686567"/>
      <point x="1649" y="739" type="qcurve" smooth="yes"/>
      <point x="1649.0" y="413.626865672"/>
      <point x="1210.88059701" y="-25.0"/>
      <point x="887" y="-25" type="qcurve" smooth="yes"/>
      <point x="561.626865672" y="-25.0"/>
      <point x="125.0" y="411.119402985"/>
      <point x="125" y="735" type="qcurve" smooth="yes"/>
      <point x="125.0" y="1060.37313433"/>
      <point x="563.626865672" y="1499.0"/>
    </contour>
    <contour>
      <point x="889" y="53" type="qcurve" smooth="yes"/>
      <point x="1182.28358209" y="53.0"/>
      <point x="1559.0" y="441.71641791"/>
      <point x="1559" y="735" type="qcurve" smooth="yes"/>
      <point x="1559.0" y="1029.7761194"/>
      <point x="1180.28358209" y="1421.0"/>
      <point x="887" y="1421" type="qcurve" smooth="yes"/>
      <point x="592.223880597" y="1421.0"/>
      <point x="215.0" y="1033.02985075"/>
      <point x="215" y="739" type="qcurve" smooth="yes"/>
      <point x="215.0" y="444.223880597"/>
      <point x="595.71641791" y="53.0"/>
    </contour>
  </outline>
</glyph>
<glyph name="guillemotleft" format="1">
  <advance width="1038.336"/>
  <unicode hex="00AB"/>
  <outline>
    <contour>
      <point x="457" y="946" type="line"/>
      <point x="635" y="946" type="line"/>
      <point x="348" y="541" type="line"/>
      <point x="432" y="143" type="line"/>
      <point x="276" y="143" type="line"/>
      <point x="35" y="545" type="line"/>
    </contour>
    <contour>
      <point x="905" y="946" type="line"/>
      <point x="1081" y="946" type="line"/>
      <point x="797" y="541" type="line"/>
      <point x="881" y="143" type="line"/>
      <point x="725" y="143" type="line"/>
      <point x="483" y="545" type="line"/>
    </contour>
  </outline>
</glyph>
<glyph name="uni00AE" format="1">
  <advance width="1679.36"/>
  <unicode hex="00AE"/>
  <outline>
    <contour>
      <point x="1055" y="692" type="qcurve"/>
      <point x="1268" y="322" type="line"/>
      <point x="1044" y="322" type="line"/>
      <point x="856" y="662" type="line"/>
      <point x="799" y="662" type="line"/>
      <point x="799" y="322" type="line"/>
      <point x="592" y="322" type="line"/>
      <point x="592" y="1184" type="line"/>
      <point x="911" y="1184" type="line" smooth="yes"/>
      <point x="1053.53731343" y="1184.0"/>
      <point x="1225.0" y="1055.85074627"/>
      <point x="1225" y="926" type="qcurve" smooth="yes"/>
      <point x="1225.0" y="837.194029851"/>
      <point x="1134.10447761" y="718.119402985"/>
    </contour>
    <contour>
      <point x="889" y="1499" type="qcurve" smooth="yes"/>
      <point x="1214.37313433" y="1499.0"/>
      <point x="1649.0" y="1063.62686567"/>
      <point x="1649" y="739" type="qcurve" smooth="yes"/>
      <point x="1649.0" y="413.626865672"/>
      <point x="1210.88059701" y="-25.0"/>
      <point x="887" y="-25" type="qcurve" smooth="yes"/>
      <point x="561.626865672" y="-25.0"/>
      <point x="125.0" y="411.119402985"/>
      <point x="125" y="735" type="qcurve" smooth="yes"/>
      <point x="125.0" y="1060.37313433"/>
      <point x="563.626865672" y="1499.0"/>
    </contour>
    <contour>
      <point x="889" y="53" type="qcurve" smooth="yes"/>
      <point x="1182.28358209" y="53.0"/>
      <point x="1559.0" y="441.71641791"/>
      <point x="1559" y="735" type="qcurve" smooth="yes"/>
      <point x="1559.0" y="1029.7761194"/>
      <point x="1180.28358209" y="1421.0"/>
      <point x="887" y="1421" type="qcurve" smooth="yes"/>
      <point x="592.223880597" y="1421.0"/>
      <point x="215.0" y="1033.02985075"/>
      <point x="215" y="739" type="qcurve" smooth="yes"/>
      <point x="215.0" y="444.223880597"/>
      <point x="595.71641791" y="53.0"/>
    </contour>
    <contour>
      <point x="887" y="803" type="line" smooth="yes"/>
      <point x="951.179104478" y="803.0"/>
      <point x="1018.0" y="864.298507463"/>
      <point x="1018" y="924" type="qcurve" smooth="yes"/>
      <point x="1018.0" y="978.47761194"/>
      <point x="950.671641791" y="1036.0"/>
      <point x="885" y="1036" type="qcurve" smooth="yes"/>
      <point x="791" y="1036" type="line"/>
      <point x="791" y="803" type="line"/>
    </contour>
  </outline>
</glyph>
<glyph name="periodcentered" format="1">
  <advance width="483.328"/>
  <unicode hex="00B7"/>
  <outline>
    <contour>
      <point x="246" y="748" type="qcurve" smooth="yes"/>
      <point x="322.119402985" y="748.0"/>
      <point x="424.0" y="645.865671642"/>
      <point x="424" y="569" type="qcurve" smooth="yes"/>
      <point x="424.0" y="492.880597015"/>
      <point x="322.119402985" y="391.0"/>
      <point x="246" y="391" type="qcurve" smooth="yes"/>
      <point x="170.626865672" y="391.0"/>
      <point x="70.0" y="492.880597015"/>
      <point x="70" y="569" type="qcurve" smooth="yes"/>
      <point x="70.0" y="645.865671642"/>
      <point x="170.626865672" y="748.0"/>
    </contour>
  </outline>
</glyph>
<glyph name="cedilla" format="1">
  <advance width="1024.0"/>
  <unicode hex="00B8"/>
  <outline>
    <contour>
      <point x="436" y="-92" type="qcurve" smooth="yes"/>
      <point x="523.313432836" y="-92.0"/>
      <point x="608.0" y="-151.268656716"/>
      <point x="608" y="-205" type="qcurve" smooth="yes"/>
      <point x="608.0" y="-298.28358209"/>
      <point x="389.925373134" y="-391.0"/>
      <point x="225" y="-391" type="qcurve" smooth="yes"/>
      <point x="173.507462687" y="-391.0"/>
      <point x="64.552238806" y="-381.47761194"/>
      <point x="25" y="-377" type="qcurve"/>
      <point x="43" y="-315" type="line"/>
      <point x="81.0597014925" y="-317.985074627"/>
      <point x="163.417910448" y="-326.0"/>
      <point x="197" y="-326" type="qcurve" smooth="yes"/>
      <point x="305.208955224" y="-326.0"/>
      <point x="416.0" y="-282.567164179"/>
      <point x="416" y="-246" type="qcurve" smooth="yes"/>
      <point x="416.0" y="-222.865671642"/>
      <point x="377.552238806" y="-197.0"/>
      <point x="338" y="-197" type="qcurve" smooth="yes"/>
      <point x="313.373134328" y="-197.0"/>
      <point x="263.089552239" y="-206.044776119"/>
      <point x="231" y="-215" type="qcurve"/>
      <point x="174" y="-172" type="line"/>
      <point x="358" y="0" type="line"/>
      <point x="463" y="0" type="line"/>
      <point x="354" y="-98" type="line"/>
      <point x="372.656716418" y="-95.0149253731"/>
      <point x="416.597014925" y="-92.0"/>
    </contour>
  </outline>
</glyph>
<glyph name="ordmasculine" format="1">
  <advance width="827.392"/>
  <unicode hex="00BA"/>
  <outline>
    <contour>
      <point x="573" y="1489" type="qcurve" smooth="yes"/>
      <point x="708.074626866" y="1489.0"/>
      <point x="868.0" y="1352.0"/>
      <point x="868" y="1202" type="qcurve" smooth="yes"/>
      <point x="868.0" y="1037.07462687"/>
      <point x="672.582089552" y="731.0"/>
      <point x="489" y="731" type="qcurve" smooth="yes"/>
      <point x="354.671641791" y="731.0"/>
      <point x="195.0" y="869.492537313"/>
      <point x="195" y="1018" type="qcurve" smooth="yes"/>
      <point x="195.0" y="1182.92537313"/>
      <point x="390.164179104" y="1489.0"/>
    </contour>
    <contour>
      <point x="485" y="862" type="qcurve" smooth="yes"/>
      <point x="570.820895522" y="862.0"/>
      <point x="666.0" y="1131.23880597"/>
      <point x="666" y="1229" type="qcurve" smooth="yes"/>
      <point x="666.0" y="1297.65671642"/>
      <point x="619.044776119" y="1360.0"/>
      <point x="578" y="1360" type="qcurve" smooth="yes"/>
      <point x="492.179104478" y="1360.0"/>
      <point x="397.0" y="1090.76119403"/>
      <point x="397" y="993" type="qcurve" smooth="yes"/>
      <point x="397.0" y="924.343283582"/>
      <point x="443.955223881" y="862.0"/>
    </contour>
    <contour>
      <point x="117" y="612" type="line"/>
      <point x="743" y="612" type="line"/>
      <point x="715" y="500" type="line"/>
      <point x="88" y="500" type="line"/>
    </contour>
  </outline>
</glyph>
<glyph name="guillemotright" format="1">
  <advance width="1038.336"/>
  <unicode hex="00BB"/>
  <outline>
    <contour>
      <point x="315" y="946" type="line"/>
      <point x="557" y="545" type="line"/>
      <point x="135" y="143" type="line"/>
      <point x="-43" y="143" type="line"/>
      <point x="242" y="549" type="line"/>
      <point x="160" y="946" type="line"/>
    </contour>
    <contour>
      <point x="764" y="946" type="line"/>
      <point x="1004" y="545" type="line"/>
      <point x="584" y="143" type="line"/>
      <point x="406" y="143" type="line"/>
      <point x="690" y="549" type="line"/>
      <point x="608" y="946" type="line"/>
    </contour>
  </outline>
</glyph>
<glyph name="questiondown" format="1">
  <advance width="1017.856"/>
  <unicode hex="00BF"/>
  <outline>
    <contour>
      <point x="723" y="422" type="qcurve"/>
      <point x="932" y="295" type="line"/>
      <point x="832.746268657" y="139.029850746"/>
      <point x="574.985074627" y="-16.0"/>
      <point x="422" y="-16" type="qcurve" smooth="yes"/>
      <point x="236.925373134" y="-16.0"/>
      <point x="8.0" y="160.731343284"/>
      <point x="8" y="307" type="qcurve" smooth="yes"/>
      <point x="8.0" y="464.462686567"/>
      <point x="183.014925373" y="668.179104478"/>
      <point x="336" y="754" type="qcurve" smooth="yes"/>
      <point x="445.701492537" y="815.194029851"/>
      <point x="544.641791045" y="911.447761194"/>
      <point x="573" y="1001" type="qcurve"/>
      <point x="778" y="1001" type="line"/>
      <point x="761.582089552" y="837.567164179"/>
      <point x="646.328358209" y="671.104477612"/>
      <point x="512" y="592" type="qcurve" smooth="yes"/>
      <point x="423.194029851" y="538.268656716"/>
      <point x="317.0" y="421.641791045"/>
      <point x="317" y="350" type="qcurve" smooth="yes"/>
      <point x="317.0" y="287.313432836"/>
      <point x="392.313432836" y="221.0"/>
      <point x="455" y="221" type="qcurve" smooth="yes"/>
      <point x="519.179104478" y="221.0"/>
      <point x="648.373134328" y="315.28358209"/>
    </contour>
    <contour>
      <point x="750" y="1497" type="qcurve" smooth="yes"/>
      <point x="823.134328358" y="1497.0"/>
      <point x="920.0" y="1398.64179104"/>
      <point x="920" y="1327" type="qcurve" smooth="yes"/>
      <point x="920.0" y="1253.86567164"/>
      <point x="823.134328358" y="1157.0"/>
      <point x="750" y="1157" type="qcurve" smooth="yes"/>
      <point x="676.119402985" y="1157.0"/>
      <point x="580.0" y="1253.86567164"/>
      <point x="580" y="1327" type="qcurve" smooth="yes"/>
      <point x="580.0" y="1398.64179104"/>
      <point x="676.119402985" y="1497.0"/>
    </contour>
  </outline>
</glyph>
<glyph name="AE" format="1">
  <advance width="1957.888"/>
  <unicode hex="00C6"/>
  <outline>
    <contour>
      <point x="932" y="1475" type="line"/>
      <point x="2103" y="1475" type="line"/>
      <point x="2042" y="1221" type="line"/>
      <point x="1434" y="1221" type="line"/>
      <point x="1348" y="881" type="line"/>
      <point x="1800" y="881" type="line"/>
      <point x="1741" y="641" type="line"/>
      <point x="1290" y="641" type="line"/>
      <point x="1192" y="254" type="line"/>
      <point x="1825" y="254" type="line"/>
      <point x="1761" y="0" type="line"/>
      <point x="815" y="0" type="line"/>
      <point x="897" y="334" type="line"/>
      <point x="446" y="334" type="line"/>
      <point x="213" y="0" type="line"/>
      <point x="-131" y="0" type="line"/>
    </contour>
    <contour>
      <point x="950" y="545" type="line"/>
      <point x="1122" y="1235" type="line"/>
      <point x="1071" y="1235" type="line"/>
      <point x="586" y="545" type="line"/>
    </contour>
  </outline>
</glyph>
<glyph name="Eth" format="1">
  <advance width="1378.304"/>
  <unicode hex="00D0"/>
  <outline>
    <contour>
      <point x="1384" y="983" type="qcurve" smooth="yes"/>
      <point x="1384" y="977" type="line" smooth="yes"/>
      <point x="1384.0" y="915.805970149"/>
      <point x="1370.41791045" y="796.134328358"/>
      <point x="1354" y="723" type="qcurve" smooth="yes"/>
      <point x="1268.17910448" y="352.850746269"/>
      <point x="868.880597015" y="0.0"/>
      <point x="545" y="0" type="qcurve" smooth="yes"/>
      <point x="61" y="0" type="line"/>
      <point x="221" y="635" type="line"/>
      <point x="63" y="635" type="line"/>
      <point x="127" y="889" type="line"/>
      <point x="283" y="889" type="line"/>
      <point x="430" y="1475" type="line"/>
      <point x="838" y="1475" type="line" smooth="yes"/>
      <point x="1093.2238806" y="1475.0"/>
      <point x="1384.0" y="1232.25373134"/>
    </contour>
    <contour>
      <point x="1012" y="715" type="qcurve" smooth="yes"/>
      <point x="1026.92537313" y="773.208955224"/>
      <point x="1044.0" y="899.52238806"/>
      <point x="1044" y="954" type="qcurve" smooth="yes"/>
      <point x="1044" y="965" type="line" smooth="yes"/>
      <point x="1044.0" y="1090.37313433"/>
      <point x="910.164179104" y="1227.0"/>
      <point x="793" y="1227" type="qcurve" smooth="yes"/>
      <point x="674" y="1227" type="line"/>
      <point x="590" y="889" type="line"/>
      <point x="799" y="889" type="line"/>
      <point x="737" y="635" type="line"/>
      <point x="526" y="635" type="line"/>
      <point x="430" y="248" type="line"/>
      <point x="565" y="248" type="line" smooth="yes"/>
      <point x="725.447761194" y="248.0"/>
      <point x="947.820895522" y="470.223880597"/>
    </contour>
  </outline>
</glyph>
<glyph name="Oslash" format="1">
  <advance width="1314.816"/>
  <unicode hex="00D8"/>
  <outline>
    <contour>
      <point x="1311" y="1673" type="line"/>
      <point x="1497" y="1673" type="line"/>
      <point x="1227" y="1323" type="line"/>
      <point x="1269.53731343" y="1263.29850746"/>
      <point x="1315.0" y="1104.7761194"/>
      <point x="1315" y="1010" type="qcurve" smooth="yes"/>
      <point x="1315" y="1001" type="line" smooth="yes"/>
      <point x="1315.0" y="940.552238806"/>
      <point x="1294.92537313" y="773.656716418"/>
      <point x="1280" y="705" type="qcurve" smooth="yes"/>
      <point x="1200.89552239" y="352.76119403"/>
      <point x="852.850746269" y="-25.0"/>
      <point x="573" y="-25" type="qcurve" smooth="yes"/>
      <point x="487.925373134" y="-25.0"/>
      <point x="340.462686567" y="16.9402985075"/>
      <point x="283" y="55" type="qcurve"/>
      <point x="102" y="-195" type="line"/>
      <point x="-84" y="-195" type="line"/>
      <point x="184" y="152" type="line"/>
      <point x="141.462686567" y="210.955223881"/>
      <point x="96.0" y="368.731343284"/>
      <point x="96" y="465" type="qcurve" smooth="yes"/>
      <point x="96" y="473" type="line" smooth="yes"/>
      <point x="96.0" y="534.194029851"/>
      <point x="116.074626866" y="701.343283582"/>
      <point x="131" y="770" type="qcurve" smooth="yes"/>
      <point x="209.358208955" y="1121.49253731"/>
      <point x="558.149253731" y="1499.0"/>
      <point x="838" y="1499" type="qcurve" smooth="yes"/>
      <point x="923.074626866" y="1499.0"/>
      <point x="1070.02985075" y="1459.29850746"/>
      <point x="1126" y="1419" type="qcurve"/>
    </contour>
    <contour>
      <point x="948" y="657" type="qcurve" smooth="yes"/>
      <point x="983.074626866" y="783.865671642"/>
      <point x="1012.0" y="957.313432836"/>
      <point x="1012" y="1020" type="qcurve" smooth="yes"/>
      <point x="1012" y="1026" type="line" smooth="yes"/>
      <point x="1012.0" y="1034.95522388"/>
      <point x="1011.49253731" y="1052.04477612"/>
      <point x="1010" y="1061" type="qcurve"/>
      <point x="444" y="279" type="line"/>
      <point x="468.626865672" y="246.910447761"/>
      <point x="542.746268657" y="211.0"/>
      <point x="592" y="211" type="qcurve" smooth="yes"/>
      <point x="711.402985075" y="211.0"/>
      <point x="888.298507463" y="435.358208955"/>
    </contour>
    <contour>
      <point x="399" y="416" type="qcurve"/>
      <point x="965" y="1196" type="line"/>
      <point x="940.373134328" y="1228.08955224"/>
      <point x="868.253731343" y="1264.0"/>
      <point x="819" y="1264" type="qcurve" smooth="yes"/>
      <point x="699.597014925" y="1264.0"/>
      <point x="522.701492537" y="1038.64179104"/>
      <point x="463" y="817" type="qcurve" smooth="yes"/>
      <point x="427.925373134" y="690.134328358"/>
      <point x="397.0" y="517.686567164"/>
      <point x="397" y="455" type="qcurve" smooth="yes"/>
      <point x="397" y="449" type="line" smooth="yes"/>
      <point x="397.0" y="439.298507463"/>
      <point x="397.507462687" y="423.462686567"/>
    </contour>
  </outline>
</glyph>
<glyph name="Thorn" format="1">
  <advance width="1204.224"/>
  <unicode hex="00DE"/>
  <outline>
    <contour>
      <point x="731" y="1212" type="line" smooth="yes"/>
      <point x="968.313432836" y="1212.0"/>
      <point x="1212.0" y="1018.8358209"/>
      <point x="1212" y="836" type="qcurve" smooth="yes"/>
      <point x="1212.0" y="591.223880597"/>
      <point x="864.835820896" y="303.0"/>
      <point x="582" y="303" type="qcurve" smooth="yes"/>
      <point x="387" y="303" type="line"/>
      <point x="311" y="0" type="line"/>
      <point x="-16" y="0" type="line"/>
      <point x="350" y="1475" type="line"/>
      <point x="678" y="1475" type="line"/>
      <point x="612" y="1212" type="line"/>
    </contour>
    <contour>
      <point x="584" y="539" type="line" smooth="yes"/>
      <point x="721.313432836" y="539.0"/>
      <point x="889.0" y="682.104477612"/>
      <point x="889" y="803" type="qcurve" smooth="yes"/>
      <point x="889.0" y="894.791044776"/>
      <point x="776.179104478" y="981.0"/>
      <point x="662" y="981" type="qcurve" smooth="yes"/>
      <point x="543" y="981" type="line"/>
      <point x="432" y="539" type="line"/>
    </contour>
  </outline>
</glyph>
<glyph name="germandbls" format="1">
  <advance width="1239.04"/>
  <unicode hex="00DF"/>
  <outline>
    <contour>
      <point x="823" y="1554" type="qcurve" smooth="yes"/>
      <point x="1017.02985075" y="1554.0"/>
      <point x="1241.0" y="1382.04477612"/>
      <point x="1241" y="1241" type="qcurve" smooth="yes"/>
      <point x="1241.0" y="1077.56716418"/>
      <point x="1030.68656716" y="890.029850746"/>
      <point x="918" y="846" type="qcurve"/>
      <point x="913" y="831" type="line"/>
      <point x="1020.46268657" y="778.014925373"/>
      <point x="1161.0" y="579.074626866"/>
      <point x="1161" y="444" type="qcurve" smooth="yes"/>
      <point x="1161.0" y="214.895522388"/>
      <point x="864.701492537" y="-14.0"/>
      <point x="655" y="-14" type="qcurve" smooth="yes"/>
      <point x="568.432835821" y="-14.0"/>
      <point x="446.76119403" y="11.8656716418"/>
      <point x="399" y="35" type="qcurve"/>
      <point x="475" y="229" type="line"/>
      <point x="508.582089552" y="212.582089552"/>
      <point x="574.447761194" y="193.0"/>
      <point x="614" y="193" type="qcurve" smooth="yes"/>
      <point x="719.970149254" y="193.0"/>
      <point x="854.0" y="332.611940299"/>
      <point x="854" y="455" type="qcurve" smooth="yes"/>
      <point x="854.0" y="558.731343284"/>
      <point x="730.865671642" y="709.194029851"/>
      <point x="604" y="748" type="qcurve"/>
      <point x="651" y="934" type="line"/>
      <point x="770.402985075" y="945.940298507"/>
      <point x="932.0" y="1099.28358209"/>
      <point x="932" y="1206" type="qcurve" smooth="yes"/>
      <point x="932.0" y="1273.1641791"/>
      <point x="849.641791045" y="1352.0"/>
      <point x="778" y="1352" type="qcurve" smooth="yes"/>
      <point x="692.925373134" y="1352.0"/>
      <point x="584.611940299" y="1240.44776119"/>
      <point x="557" y="1130" type="qcurve" smooth="yes"/>
      <point x="276" y="0" type="line"/>
      <point x="-33" y="0" type="line"/>
      <point x="250" y="1143" type="line" smooth="yes"/>
      <point x="303.731343284" y="1361.65671642"/>
      <point x="587.925373134" y="1554.0"/>
    </contour>
  </outline>
</glyph>
<glyph name="ae" format="1">
  <advance width="1601.536"/>
  <unicode hex="00E6"/>
  <outline>
    <contour>
      <point x="1225" y="1110" type="qcurve" smooth="yes"/>
      <point x="1411.56716418" y="1110.0"/>
      <point x="1569.0" y="908.955223881"/>
      <point x="1569" y="750" type="qcurve" smooth="yes"/>
      <point x="1569.0" y="688.805970149"/>
      <point x="1544.89552239" y="551.358208955"/>
      <point x="1524" y="473" type="qcurve"/>
      <point x="920" y="473" type="line"/>
      <point x="918.507462687" y="451.358208955"/>
      <point x="913.0" y="409.149253731"/>
      <point x="913" y="389" type="qcurve" smooth="yes"/>
      <point x="913" y="385" type="line" smooth="yes"/>
      <point x="913.0" y="287.23880597"/>
      <point x="1014.20895522" y="193.0"/>
      <point x="1106" y="193" type="qcurve" smooth="yes"/>
      <point x="1168.68656716" y="193.0"/>
      <point x="1322.19402985" y="236.447761194"/>
      <point x="1411" y="276" type="qcurve"/>
      <point x="1442" y="78" type="line"/>
      <point x="1336.02985075" y="31.7313432836"/>
      <point x="1157.40298507" y="-16.0"/>
      <point x="1038" y="-16" type="qcurve" smooth="yes"/>
      <point x="902.179104478" y="-16.0"/>
      <point x="720.029850746" y="77.1940298507"/>
      <point x="676" y="166" type="qcurve"/>
      <point x="659" y="166" type="line"/>
      <point x="540.343283582" y="69.7313432836"/>
      <point x="344.432835821" y="-12.0"/>
      <point x="231" y="-12" type="qcurve" smooth="yes"/>
      <point x="119.805970149" y="-12.0"/>
      <point x="-14.0" y="107.298507463"/>
      <point x="-14" y="217" type="qcurve" smooth="yes"/>
      <point x="-14.0" y="387.895522388"/>
      <point x="302.865671642" y="631.567164179"/>
      <point x="676" y="645" type="qcurve"/>
      <point x="696" y="723" type="line" smooth="yes"/>
      <point x="700.47761194" y="741.656716418"/>
      <point x="705.0" y="776.820895522"/>
      <point x="705" y="791" type="qcurve" smooth="yes"/>
      <point x="705.0" y="839.507462687"/>
      <point x="639.925373134" y="893.0"/>
      <point x="575" y="893" type="qcurve" smooth="yes"/>
      <point x="504.850746269" y="893.0"/>
      <point x="363.223880597" y="853.029850746"/>
      <point x="258" y="809" type="qcurve"/>
      <point x="213" y="993" type="line"/>
      <point x="330.910447761" y="1046.73134328"/>
      <point x="532.28358209" y="1102.0"/>
      <point x="639" y="1102" type="qcurve" smooth="yes"/>
      <point x="753.925373134" y="1102.0"/>
      <point x="870.343283582" y="1027.37313433"/>
      <point x="889" y="952" type="qcurve"/>
      <point x="903" y="952" type="line"/>
      <point x="970.164179104" y="1025.88059701"/>
      <point x="1128.73134328" y="1110.0"/>
    </contour>
    <contour>
      <point x="631" y="371" type="line" smooth="yes"/>
      <point x="631.0" y="407.567164179"/>
      <point x="641.537313433" y="489.462686567"/>
      <point x="649" y="532" type="qcurve"/>
      <point x="440.044776119" y="518.567164179"/>
      <point x="279.0" y="372.582089552"/>
      <point x="279" y="289" type="qcurve" smooth="yes"/>
      <point x="279.0" y="230.791044776"/>
      <point x="343.313432836" y="168.0"/>
      <point x="406" y="168" type="qcurve" smooth="yes"/>
      <point x="453.014925373" y="168.0"/>
      <point x="560.880597015" y="212.582089552"/>
      <point x="637" y="279" type="qcurve"/>
      <point x="634.014925373" y="298.402985075"/>
      <point x="631.0" y="343.865671642"/>
      <point x="631" y="367" type="qcurve" smooth="yes"/>
    </contour>
    <contour>
      <point x="1270" y="598" type="line"/>
      <point x="1281.94029851" y="648.746268657"/>
      <point x="1296.0" y="737.402985075"/>
      <point x="1296" y="768" type="qcurve" smooth="yes"/>
      <point x="1296.0" y="841.134328358"/>
      <point x="1249.19402985" y="932.0"/>
      <point x="1188" y="932" type="qcurve" smooth="yes"/>
      <point x="1112.62686567" y="932.0"/>
      <point x="981.074626866" y="738.298507463"/>
      <point x="946" y="598" type="qcurve"/>
    </contour>
  </outline>
</glyph>
<glyph name="ccedilla" format="1">
  <advance width="995.328"/>
  <unicode hex="00E7"/>
  <outline>
    <contour>
      <point x="641" y="1110" type="qcurve" smooth="yes"/>
      <point x="841.0" y="1110.0"/>
      <point x="1005.71641791" y="906.641791045"/>
      <point x="999" y="735" type="qcurve"/>
      <point x="711" y="700" type="line"/>
      <point x="716.970149254" y="805.970149254"/>
      <point x="676.686567164" y="911.0"/>
      <point x="614" y="911" type="qcurve" smooth="yes"/>
      <point x="534.895522388" y="911.0"/>
      <point x="421.537313433" y="726.940298507"/>
      <point x="379" y="565" type="qcurve" smooth="yes"/>
      <point x="360.343283582" y="499.328358209"/>
      <point x="342.0" y="379.52238806"/>
      <point x="342" y="334" type="qcurve" smooth="yes"/>
      <point x="342" y="330" type="line" smooth="yes"/>
      <point x="342.0" y="256.119402985"/>
      <point x="404.76119403" y="178.0"/>
      <point x="457" y="178" type="qcurve" smooth="yes"/>
      <point x="507.0" y="178.0"/>
      <point x="596.492537313" y="264.71641791"/>
      <point x="645" y="358" type="qcurve"/>
      <point x="905" y="283" type="line"/>
      <point x="831.865671642" y="143.447761194"/>
      <point x="610.149253731" y="-18.5074626866"/>
      <point x="440" y="-20" type="qcurve"/>
      <point x="356" y="-98" type="line"/>
      <point x="374.656716418" y="-95.0149253731"/>
      <point x="418.597014925" y="-92.0"/>
      <point x="438" y="-92" type="qcurve" smooth="yes"/>
      <point x="525.313432836" y="-92.0"/>
      <point x="610.0" y="-151.268656716"/>
      <point x="610" y="-205" type="qcurve" smooth="yes"/>
      <point x="610.0" y="-298.28358209"/>
      <point x="392.164179104" y="-391.0"/>
      <point x="225" y="-391" type="qcurve" smooth="yes"/>
      <point x="175.0" y="-391.0"/>
      <point x="65.0597014925" y="-381.47761194"/>
      <point x="27" y="-377" type="qcurve"/>
      <point x="45" y="-315" type="line"/>
      <point x="83.0597014925" y="-317.985074627"/>
      <point x="164.910447761" y="-326.0"/>
      <point x="197" y="-326" type="qcurve" smooth="yes"/>
      <point x="306.701492537" y="-326.0"/>
      <point x="418.0" y="-282.567164179"/>
      <point x="418" y="-246" type="qcurve" smooth="yes"/>
      <point x="418.0" y="-222.865671642"/>
      <point x="379.552238806" y="-197.0"/>
      <point x="340" y="-197" type="qcurve" smooth="yes"/>
      <point x="315.373134328" y="-197.0"/>
      <point x="265.089552239" y="-206.044776119"/>
      <point x="233" y="-215" type="qcurve"/>
      <point x="176" y="-172" type="line"/>
      <point x="346" y="-14" type="line"/>
      <point x="205.701492537" y="6.89552238806"/>
      <point x="41.0" y="199.835820896"/>
      <point x="41" y="367" type="qcurve" smooth="yes"/>
      <point x="41" y="371" type="line" smooth="yes"/>
      <point x="41.0" y="416.52238806"/>
      <point x="57.8208955224" y="535.28358209"/>
      <point x="72" y="592" type="qcurve" smooth="yes"/>
      <point x="133.194029851" y="830.059701493"/>
      <point x="411.895522388" y="1110.0"/>
    </contour>
  </outline>
</glyph>
<glyph name="eth" format="1">
  <advance width="1081.344"/>
  <unicode hex="00F0"/>
  <outline>
    <contour>
      <point x="903" y="1454" type="qcurve"/>
      <point x="1186" y="1561" type="line"/>
      <point x="1157" y="1448" type="line"/>
      <point x="958" y="1372" type="line"/>
      <point x="1011.73134328" y="1278.71641791"/>
      <point x="1071.0" y="1063.91044776"/>
      <point x="1071" y="946" type="qcurve" smooth="yes"/>
      <point x="1071" y="938" type="line" smooth="yes"/>
      <point x="1071.0" y="852.179104478"/>
      <point x="1040.56716418" y="661.52238806"/>
      <point x="1004" y="516" type="qcurve" smooth="yes"/>
      <point x="936.089552239" y="250.328358209"/>
      <point x="650.179104478" y="-20.0"/>
      <point x="436" y="-20" type="qcurve" smooth="yes"/>
      <point x="250.925373134" y="-20.0"/>
      <point x="41.0" y="177.447761194"/>
      <point x="41" y="367" type="qcurve" smooth="yes"/>
      <point x="41" y="371" type="line" smooth="yes"/>
      <point x="41.0" y="416.52238806"/>
      <point x="57.8208955224" y="532.776119403"/>
      <point x="72" y="588" type="qcurve" smooth="yes"/>
      <point x="131.701492537" y="824.567164179"/>
      <point x="387.626865672" y="1096.0"/>
      <point x="563" y="1096" type="qcurve" smooth="yes"/>
      <point x="668.970149254" y="1096.0"/>
      <point x="792.402985075" y="990.313432836"/>
      <point x="823" y="903" type="qcurve"/>
      <point x="834" y="903" type="line"/>
      <point x="841.462686567" y="1008.2238806"/>
      <point x="786.731343284" y="1207.43283582"/>
      <point x="733" y="1294" type="qcurve"/>
      <point x="455" y="1188" type="line"/>
      <point x="483" y="1300" type="line"/>
      <point x="670" y="1374" type="line"/>
      <point x="643.880597015" y="1403.10447761"/>
      <point x="584.582089552" y="1460.37313433"/>
      <point x="551" y="1485" type="qcurve"/>
      <point x="819" y="1561" type="line"/>
      <point x="840.641791045" y="1534.88059701"/>
      <point x="885.089552239" y="1481.6119403"/>
    </contour>
    <contour>
      <point x="694" y="526" type="qcurve" smooth="yes"/>
      <point x="714.149253731" y="605.850746269"/>
      <point x="733.0" y="722.955223881"/>
      <point x="733" y="764" type="qcurve" smooth="yes"/>
      <point x="733" y="768" type="line" smooth="yes"/>
      <point x="733.0" y="852.328358209"/>
      <point x="672.71641791" y="926.0"/>
      <point x="616" y="926" type="qcurve" smooth="yes"/>
      <point x="535.402985075" y="926.0"/>
      <point x="421.537313433" y="729.925373134"/>
      <point x="379" y="565" type="qcurve" smooth="yes"/>
      <point x="358.850746269" y="485.895522388"/>
      <point x="340.0" y="367.044776119"/>
      <point x="340" y="326" type="qcurve" smooth="yes"/>
      <point x="340" y="322" type="line" smooth="yes"/>
      <point x="340.0" y="237.671641791"/>
      <point x="399.776119403" y="164.0"/>
      <point x="455" y="164" type="qcurve" smooth="yes"/>
      <point x="537.089552239" y="164.0"/>
      <point x="651.462686567" y="359.582089552"/>
    </contour>
  </outline>
</glyph>
<glyph name="oe" format="1">
  <advance width="1660.928"/>
  <unicode hex="0153"/>
  <outline>
    <contour>
      <point x="1288" y="1110" type="qcurve" smooth="yes"/>
      <point x="1467.10447761" y="1110.0"/>
      <point x="1628.0" y="908.955223881"/>
      <point x="1628" y="750" type="qcurve" smooth="yes"/>
      <point x="1628.0" y="688.805970149"/>
      <point x="1604.64179104" y="551.358208955"/>
      <point x="1583" y="473" type="qcurve"/>
      <point x="981" y="473" type="line"/>
      <point x="978.014925373" y="451.358208955"/>
      <point x="975.0" y="409.149253731"/>
      <point x="975" y="389" type="qcurve" smooth="yes"/>
      <point x="975" y="385" type="line" smooth="yes"/>
      <point x="975.0" y="285.746268657"/>
      <point x="1074.2238806" y="193.0"/>
      <point x="1169" y="193" type="qcurve" smooth="yes"/>
      <point x="1227.20895522" y="193.0"/>
      <point x="1381.94029851" y="236.447761194"/>
      <point x="1470" y="276" type="qcurve"/>
      <point x="1501" y="78" type="line"/>
      <point x="1395.7761194" y="31.7313432836"/>
      <point x="1224.95522388" y="-16.0"/>
      <point x="1116" y="-16" type="qcurve" smooth="yes"/>
      <point x="986.149253731" y="-16.0"/>
      <point x="832.611940299" y="94.552238806"/>
      <point x="805" y="205" type="qcurve"/>
      <point x="788" y="205" type="line"/>
      <point x="723.820895522" y="104.253731343"/>
      <point x="534.358208955" y="-20.0"/>
      <point x="406" y="-20" type="qcurve" smooth="yes"/>
      <point x="251.52238806" y="-20.0"/>
      <point x="41.0" y="177.447761194"/>
      <point x="41" y="367" type="qcurve" smooth="yes"/>
      <point x="41" y="371" type="line" smooth="yes"/>
      <point x="41.0" y="416.52238806"/>
      <point x="57.8208955224" y="532.776119403"/>
      <point x="72" y="588" type="qcurve" smooth="yes"/>
      <point x="133.194029851" y="829.044776119"/>
      <point x="410.47761194" y="1110.0"/>
      <point x="606" y="1110" type="qcurve" smooth="yes"/>
      <point x="728.388059701" y="1110.0"/>
      <point x="878.402985075" y="994.223880597"/>
      <point x="909" y="889" type="qcurve"/>
      <point x="924" y="889" type="line"/>
      <point x="992.656716418" y="992.731343284"/>
      <point x="1165.6119403" y="1110.0"/>
    </contour>
    <contour>
      <point x="692" y="526" type="qcurve" smooth="yes"/>
      <point x="712.149253731" y="605.850746269"/>
      <point x="731.0" y="722.955223881"/>
      <point x="731" y="764" type="qcurve" smooth="yes"/>
      <point x="731" y="768" type="line" smooth="yes"/>
      <point x="731.0" y="849.343283582"/>
      <point x="670.71641791" y="926.0"/>
      <point x="614" y="926" type="qcurve" smooth="yes"/>
      <point x="534.895522388" y="926.0"/>
      <point x="421.537313433" y="731.417910448"/>
      <point x="379" y="565" type="qcurve" smooth="yes"/>
      <point x="357.358208955" y="485.895522388"/>
      <point x="340.0" y="367.044776119"/>
      <point x="340" y="326" type="qcurve" smooth="yes"/>
      <point x="340" y="322" type="line" smooth="yes"/>
      <point x="340.0" y="237.671641791"/>
      <point x="398.76119403" y="164.0"/>
      <point x="451" y="164" type="qcurve" smooth="yes"/>
      <point x="531.597014925" y="164.0"/>
      <point x="649.462686567" y="359.582089552"/>
    </contour>
    <contour>
      <point x="1329" y="598" type="line"/>
      <point x="1341.68656716" y="648.746268657"/>
      <point x="1356.0" y="737.402985075"/>
      <point x="1356" y="768" type="qcurve" smooth="yes"/>
      <point x="1356.0" y="841.134328358"/>
      <point x="1307.68656716" y="932.0"/>
      <point x="1245" y="932" type="qcurve" smooth="yes"/>
      <point x="1171.86567164" y="932.0"/>
      <point x="1042.56716418" y="738.298507463"/>
      <point x="1006" y="598" type="qcurve"/>
    </contour>
  </outline>
</glyph>
<glyph name="florin" format="1">
  <advance width="956.416"/>
  <unicode hex="0192"/>
  <outline>
    <contour>
      <point x="807" y="1487" type="qcurve" smooth="yes"/>
      <point x="894.313432836" y="1487.0"/>
      <point x="1025.05970149" y="1464.62686567"/>
      <point x="1087" y="1440" type="qcurve"/>
      <point x="1036" y="1235" type="line"/>
      <point x="996.447761194" y="1255.14925373"/>
      <point x="920.23880597" y="1278.0"/>
      <point x="868" y="1278" type="qcurve" smooth="yes"/>
      <point x="805.313432836" y="1278.0"/>
      <point x="736.910447761" y="1201.88059701"/>
      <point x="719" y="1128" type="qcurve" smooth="yes"/>
      <point x="678" y="961" type="line"/>
      <point x="926" y="961" type="line"/>
      <point x="874" y="752" type="line"/>
      <point x="627" y="752" type="line"/>
      <point x="420" y="-80" type="line" smooth="yes"/>
      <point x="375.223880597" y="-256.865671642"/>
      <point x="174.76119403" y="-389.0"/>
      <point x="27" y="-389" type="qcurve" smooth="yes"/>
      <point x="-43.8955223881" y="-389.0"/>
      <point x="-156.731343284" y="-369.671641791"/>
      <point x="-203" y="-354" type="qcurve"/>
      <point x="-156" y="-168" type="line"/>
      <point x="-126.895522388" y="-179.940298507"/>
      <point x="-71.5970149254" y="-193.0"/>
      <point x="-41" y="-193" type="qcurve" smooth="yes"/>
      <point x="20.1940298507" y="-193.0"/>
      <point x="98.3432835821" y="-129.865671642"/>
      <point x="117" y="-53" type="qcurve" smooth="yes"/>
      <point x="317" y="752" type="line"/>
      <point x="121" y="752" type="line"/>
      <point x="172" y="961" type="line"/>
      <point x="369" y="961" type="line"/>
      <point x="420" y="1163" type="line" smooth="yes"/>
      <point x="462.537313433" y="1334.64179104"/>
      <point x="652.52238806" y="1487.0"/>
    </contour>
  </outline>
</glyph>
<glyph name="circumflex" format="1">
  <advance width="1024.0"/>
  <unicode hex="02C6"/>
  <outline>
    <contour>
      <point x="874" y="1548" type="line"/>
      <point x="1024" y="1208" type="line"/>
      <point x="885" y="1208" type="line"/>
      <point x="729" y="1380" type="line"/>
      <point x="487" y="1208" type="line"/>
      <point x="330" y="1208" type="line"/>
      <point x="647" y="1548" type="line"/>
    </contour>
  </outline>
</glyph>
<glyph name="caron" format="1">
  <advance width="1024.0"/>
  <unicode hex="02C7"/>
  <outline>
    <contour>
      <point x="944" y="1552" type="line"/>
      <point x="1102" y="1552" type="line"/>
      <point x="784" y="1212" type="line"/>
      <point x="557" y="1212" type="line"/>
      <point x="408" y="1552" type="line"/>
      <point x="547" y="1552" type="line"/>
      <point x="705" y="1380" type="line"/>
    </contour>
  </outline>
</glyph>
<glyph name="dotaccent" format="1">
  <advance width="1024.0"/>
  <unicode hex="02D9"/>
  <outline>
    <contour>
      <point x="614" y="1470" type="line"/>
      <point x="870" y="1470" type="line"/>
      <point x="805" y="1212" type="line"/>
      <point x="551" y="1212" type="line"/>
    </contour>
  </outline>
</glyph>
<glyph name="hungarumlaut" format="1">
  <advance width="1024.0"/>
  <unicode hex="02DD"/>
  <outline>
    <contour>
      <point x="453" y="1522" type="line"/>
      <point x="784" y="1522" type="line"/>
      <point x="412" y="1212" type="line"/>
      <point x="227" y="1212" type="line"/>
    </contour>
    <contour>
      <point x="885" y="1522" type="line"/>
      <point x="1214" y="1522" type="line"/>
      <point x="844" y="1212" type="line"/>
      <point x="659" y="1212" type="line"/>
    </contour>
  </outline>
</glyph>
<glyph name="emdash" format="1">
  <advance width="2048.0"/>
  <unicode hex="2014"/>
  <outline>
    <contour>
      <point x="111" y="717" type="line"/>
      <point x="2023" y="717" type="line"/>
      <point x="1958" y="463" type="line"/>
      <point x="45" y="463" type="line"/>
    </contour>
  </outline>
</glyph>
<glyph name="quotedblleft" format="1">
  <advance width="905.216"/>
  <unicode hex="201C"/>
  <outline>
    <contour>
      <point x="274" y="1475" type="line"/>
      <point x="590" y="1475" type="line"/>
      <point x="512" y="901" type="line"/>
      <point x="354" y="901" type="line"/>
    </contour>
    <contour>
      <point x="686" y="1475" type="line"/>
      <point x="1001" y="1475" type="line"/>
      <point x="924" y="901" type="line"/>
      <point x="766" y="901" type="line"/>
    </contour>
  </outline>
</glyph>
<glyph name="dagger" format="1">
  <advance width="983.04"/>
  <unicode hex="2020"/>
  <outline>
    <contour>
      <point x="707" y="1057" type="line"/>
      <point x="1077" y="1130" type="line"/>
      <point x="1020" y="895" type="line"/>
      <point x="684" y="967" type="line"/>
      <point x="690" y="696" type="line"/>
      <point x="410" y="0" type="line"/>
      <point x="299" y="0" type="line"/>
      <point x="367" y="696" type="line"/>
      <point x="508" y="967" type="line"/>
      <point x="137" y="895" type="line"/>
      <point x="195" y="1130" type="line"/>
      <point x="528" y="1057" type="line"/>
      <point x="561" y="1475" type="line"/>
      <point x="885" y="1475" type="line"/>
    </contour>
  </outline>
</glyph>
<glyph name="ellipsis" format="1">
  <advance width="1466.368"/>
  <unicode hex="2026"/>
  <outline>
    <contour>
      <point x="143" y="326" type="qcurve" smooth="yes"/>
      <point x="216.880597015" y="326.0"/>
      <point x="315.0" y="229.134328358"/>
      <point x="315" y="156" type="qcurve" smooth="yes"/>
      <point x="315.0" y="83.6119402985"/>
      <point x="216.880597015" y="-14.0"/>
      <point x="143" y="-14" type="qcurve" smooth="yes"/>
      <point x="71.3582089552" y="-14.0"/>
      <point x="-27.0" y="83.6119402985"/>
      <point x="-27" y="156" type="qcurve" smooth="yes"/>
      <point x="-27.0" y="229.134328358"/>
      <point x="71.3582089552" y="326.0"/>
    </contour>
    <contour>
      <point x="641" y="326" type="qcurve" smooth="yes"/>
      <point x="714.134328358" y="326.0"/>
      <point x="811.0" y="229.134328358"/>
      <point x="811" y="156" type="qcurve" smooth="yes"/>
      <point x="811.0" y="83.6119402985"/>
      <point x="714.134328358" y="-14.0"/>
      <point x="641" y="-14" type="qcurve" smooth="yes"/>
      <point x="567.865671642" y="-14.0"/>
      <point x="471.0" y="83.6119402985"/>
      <point x="471" y="156" type="qcurve" smooth="yes"/>
      <point x="471.0" y="229.134328358"/>
      <point x="567.865671642" y="326.0"/>
    </contour>
    <contour>
      <point x="1139" y="326" type="qcurve" smooth="yes"/>
      <point x="1210.64179104" y="326.0"/>
      <point x="1309.0" y="229.134328358"/>
      <point x="1309" y="156" type="qcurve" smooth="yes"/>
      <point x="1309.0" y="83.6119402985"/>
      <point x="1210.64179104" y="-14.0"/>
      <point x="1139" y="-14" type="qcurve" smooth="yes"/>
      <point x="1065.11940299" y="-14.0"/>
      <point x="969.0" y="83.6119402985"/>
      <point x="969" y="156" type="qcurve" smooth="yes"/>
      <point x="969.0" y="229.134328358"/>
      <point x="1065.11940299" y="326.0"/>
    </contour>
  </outline>
</glyph>
<glyph name="guilsinglleft" format="1">
  <advance width="591.872"/>
  <unicode hex="2039"/>
  <outline>
    <contour>
      <point x="457" y="946" type="line"/>
      <point x="635" y="946" type="line"/>
      <point x="348" y="541" type="line"/>
      <point x="432" y="143" type="line"/>
      <point x="276" y="143" type="line"/>
      <point x="35" y="545" type="line"/>
    </contour>
  </outline>
</glyph>
<glyph name="guilsinglright" format="1">
  <advance width="591.872"/>
  <unicode hex="203A"/>
  <outline>
    <contour>
      <point x="315" y="946" type="line"/>
      <point x="557" y="545" type="line"/>
      <point x="135" y="143" type="line"/>
      <point x="-43" y="143" type="line"/>
      <point x="242" y="549" type="line"/>
      <point x="160" y="946" type="line"/>
    </contour>
  </outline>
</glyph>
<glyph name="uni2117" format="1">
  <advance width="1679.36"/>
  <unicode hex="2117"/>
  <outline>
    <contour>
      <point x="889" y="1499" type="qcurve" smooth="yes"/>
      <point x="1214.37313433" y="1499.0"/>
      <point x="1649.0" y="1063.62686567"/>
      <point x="1649" y="739" type="qcurve" smooth="yes"/>
      <point x="1649.0" y="413.626865672"/>
      <point x="1210.88059701" y="-25.0"/>
      <point x="887" y="-25" type="qcurve" smooth="yes"/>
      <point x="561.626865672" y="-25.0"/>
      <point x="125.0" y="411.119402985"/>
      <point x="125" y="735" type="qcurve" smooth="yes"/>
      <point x="125.0" y="1060.37313433"/>
      <point x="563.626865672" y="1499.0"/>
    </contour>
    <contour>
      <point x="889" y="53" type="qcurve" smooth="yes"/>
      <point x="1182.28358209" y="53.0"/>
      <point x="1559.0" y="441.71641791"/>
      <point x="1559" y="735" type="qcurve" smooth="yes"/>
      <point x="1559.0" y="1029.7761194"/>
      <point x="1180.28358209" y="1421.0"/>
      <point x="887" y="1421" type="qcurve" smooth="yes"/>
      <point x="592.223880597" y="1421.0"/>
      <point x="215.0" y="1033.02985075"/>
      <point x="215" y="739" type="qcurve" smooth="yes"/>
      <point x="215.0" y="444.223880597"/>
      <point x="595.71641791" y="53.0"/>
    </contour>
    <contour>
      <point x="932" y="1174" type="line" smooth="yes"/>
      <point x="1078.26865672" y="1174.0"/>
      <point x="1251.0" y="1042.34328358"/>
      <point x="1251" y="911" type="qcurve" smooth="yes"/>
      <point x="1251.0" y="775.179104478"/>
      <point x="1079.46268657" y="635.0"/>
      <point x="922" y="635" type="qcurve" smooth="yes"/>
      <point x="834" y="635" type="line"/>
      <point x="834" y="311" type="line"/>
      <point x="627" y="311" type="line"/>
      <point x="627" y="1174" type="line"/>
    </contour>
    <contour>
      <point x="913" y="786" type="line" smooth="yes"/>
      <point x="977.179104478" y="786.0"/>
      <point x="1047.0" y="849.298507463"/>
      <point x="1047" y="909" type="qcurve" smooth="yes"/>
      <point x="1047.0" y="965.71641791"/>
      <point x="976.671641791" y="1026.0"/>
      <point x="911" y="1026" type="qcurve" smooth="yes"/>
      <point x="825" y="1026" type="line"/>
      <point x="825" y="786" type="line"/>
    </contour>
  </outline>
</glyph>
<glyph name="apple" format="1">
  <advance width="1024.0"/>
  <unicode hex="F8FF"/>
  <outline>
    <contour>
      <point x="1073" y="1313" type="line"/>
      <point x="1096" y="1038" type="line"/>
      <point x="721" y="1026" type="line"/>
      <point x="967" y="735" type="line"/>
      <point x="965" y="719" type="line"/>
      <point x="578" y="444" type="line"/>
      <point x="936" y="408" type="line"/>
      <point x="776" y="135" type="line"/>
      <point x="516" y="348" type="line"/>
      <point x="522" y="0" type="line"/>
      <point x="225" y="0" type="line"/>
      <point x="410" y="348" type="line"/>
      <point x="47" y="162" type="line"/>
      <point x="25" y="436" type="line"/>
      <point x="397" y="449" type="line"/>
      <point x="152" y="739" type="line"/>
      <point x="156" y="756" type="line"/>
      <point x="543" y="1030" type="line"/>
      <point x="182" y="1067" type="line"/>
      <point x="342" y="1339" type="line"/>
      <point x="604" y="1126" type="line"/>
      <point x="598" y="1475" type="line"/>
      <point x="893" y="1475" type="line"/>
      <point x="711" y="1126" type="line"/>
    </contour>
    <contour>
      <point x="496" y="475" type="line"/>
      <point x="707" y="731" type="line"/>
      <point x="625" y="999" type="line"/>
      <point x="414" y="743" type="line"/>
    </contour>
  </outline>
</glyph>
<glyph name="fi" format="1">
  <advance width="1325.056"/>
  <unicode hex="FB01"/>
  <outline>
    <contour>
      <point x="813" y="1554" type="qcurve" smooth="yes"/>
      <point x="884.641791045" y="1554.0"/>
      <point x="992.47761194" y="1539.43283582"/>
      <point x="1038" y="1526" type="qcurve"/>
      <point x="987" y="1321" type="line"/>
      <point x="960.880597015" y="1331.44776119"/>
      <point x="897.044776119" y="1346.0"/>
      <point x="856" y="1346" type="qcurve" smooth="yes"/>
      <point x="788.835820896" y="1346.0"/>
      <point x="702.149253731" y="1279.34328358"/>
      <point x="682" y="1198" type="qcurve" smooth="yes"/>
      <point x="653" y="1083" type="line"/>
      <point x="911" y="1083" type="line"/>
      <point x="860" y="877" type="line"/>
      <point x="604" y="877" type="line"/>
      <point x="385" y="0" type="line"/>
      <point x="82" y="0" type="line"/>
      <point x="301" y="877" type="line"/>
      <point x="106" y="877" type="line"/>
      <point x="158" y="1083" type="line"/>
      <point x="352" y="1083" type="line"/>
      <point x="389" y="1233" type="line" smooth="yes"/>
      <point x="431.537313433" y="1406.88059701"/>
      <point x="630.910447761" y="1554.0"/>
    </contour>
    <contour>
      <point x="1040" y="1090" type="line"/>
      <point x="1348" y="1090" type="line"/>
      <point x="1077" y="0" type="line"/>
      <point x="768" y="0" type="line"/>
    </contour>
    <contour>
      <point x="1126" y="1489" type="line"/>
      <point x="1460" y="1489" type="line"/>
      <point x="1401" y="1249" type="line"/>
      <point x="1067" y="1249" type="line"/>
    </contour>
  </outline>
</glyph>
<glyph name="a.salt" format="1">
  <advance width="1064.96"/>
  <outline>
    <contour>
      <point x="664" y="1102" type="qcurve" smooth="yes"/>
      <point x="833.402985075" y="1102.0"/>
      <point x="999.0" y="971.910447761"/>
      <point x="999" y="854" type="qcurve" smooth="yes"/>
      <point x="999.0" y="823.402985075"/>
      <point x="989.955223881" y="753.059701493"/>
      <point x="981" y="715" type="qcurve" smooth="yes"/>
      <point x="860" y="223" type="line" smooth="yes"/>
      <point x="857.014925373" y="209.567164179"/>
      <point x="852.0" y="180.447761194"/>
      <point x="852" y="170" type="qcurve" smooth="yes"/>
      <point x="852.0" y="140.895522388"/>
      <point x="888.71641791" y="108.71641791"/>
      <point x="932" y="102" type="qcurve"/>
      <point x="903" y="-10" type="line"/>
      <point x="732.104477612" y="-7.01492537313"/>
      <point x="582.701492537" y="76.6268656716"/>
      <point x="573" y="152" type="qcurve"/>
      <point x="561" y="152" type="line"/>
      <point x="464.731343284" y="67.671641791"/>
      <point x="315.805970149" y="-12.0"/>
      <point x="227" y="-12" type="qcurve" smooth="yes"/>
      <point x="118.791044776" y="-12.0"/>
      <point x="-14.0" y="104.313432836"/>
      <point x="-14" y="217" type="qcurve" smooth="yes"/>
      <point x="-14.0" y="390.134328358"/>
      <point x="303.373134328" y="631.567164179"/>
      <point x="678" y="645" type="qcurve"/>
      <point x="698" y="723" type="line" smooth="yes"/>
      <point x="703.223880597" y="741.656716418"/>
      <point x="707.0" y="776.820895522"/>
      <point x="707" y="791" type="qcurve" smooth="yes"/>
      <point x="707.0" y="839.507462687"/>
      <point x="643.671641791" y="893.0"/>
      <point x="578" y="893" type="qcurve" smooth="yes"/>
      <point x="507.104477612" y="893.0"/>
      <point x="363.223880597" y="853.029850746"/>
      <point x="258" y="809" type="qcurve"/>
      <point x="213" y="993" type="line"/>
      <point x="330.910447761" y="1046.73134328"/>
      <point x="549.074626866" y="1102.0"/>
    </contour>
    <contour>
      <point x="582" y="258" type="qcurve"/>
      <point x="651" y="530" type="line"/>
      <point x="440.552238806" y="518.059701493"/>
      <point x="279.0" y="372.582089552"/>
      <point x="279" y="289" type="qcurve" smooth="yes"/>
      <point x="279.0" y="230.791044776"/>
      <point x="343.313432836" y="168.0"/>
      <point x="406" y="168" type="qcurve" smooth="yes"/>
      <point x="444.059701493" y="168.0"/>
      <point x="529.76119403" y="212.47761194"/>
    </contour>
  </outline>
</glyph>
